<?xml version="1.0" encoding="utf-8"?>
<!-- Generator: Adobe Illustrator 20.0.0, SVG Export Plug-In . SVG Version: 6.00 Build 0)  -->
<svg version="1.1" id="Layer_1" xmlns="http://www.w3.org/2000/svg" xmlns:xlink="http://www.w3.org/1999/xlink" x="0px" y="0px"
	 viewBox="0 0 253.6 97.3" style="enable-background:new 0 0 253.6 97.3;" xml:space="preserve">
<style type="text/css">
	.st0{fill:#494D58;}
	.st1{fill:#00B9B1;}
</style>
<path class="st0" d="M23.1,85.1h-5.8v-4c-0.7,0.5-1.4,1.1-2,1.6c-0.7,0.5-1.4,1-2.1,1.5c-0.8,0.4-1.6,0.8-2.5,1.1
	c-0.9,0.3-2,0.4-3.2,0.4c-1.1,0-2.2-0.2-3.1-0.6c-0.9-0.4-1.7-0.9-2.4-1.5c-0.6-0.6-1.1-1.4-1.5-2.3C0.2,80.5,0,79.5,0,78.5
	c0-1.2,0.2-2.4,0.7-3.4c0.5-1,1.2-1.9,2-2.7c0.9-0.8,1.9-1.5,3-2.1c1.1-0.6,2.4-1.2,3.6-1.6c1.3-0.5,2.6-0.9,4-1.3
	c1.4-0.4,2.7-0.7,4-1.1v-1.8c0-1.3-0.1-2.4-0.4-3.3c-0.3-0.9-0.6-1.6-1.1-2.2c-0.5-0.6-1.1-1-1.8-1.2c-0.7-0.2-1.5-0.4-2.3-0.4
	c-1,0-1.8,0.1-2.4,0.4c-0.6,0.3-1.1,0.6-1.4,1c-0.4,0.4-0.6,0.9-0.7,1.4C7.1,60.7,7,61.3,7,61.8c0,0.5,0,1-0.1,1.5
	c-0.1,0.5-0.2,0.9-0.4,1.2c-0.2,0.4-0.5,0.6-0.9,0.9c-0.4,0.2-0.8,0.3-1.4,0.3c-0.5,0-0.9-0.1-1.2-0.3c-0.4-0.2-0.7-0.4-1-0.7
	c-0.3-0.3-0.5-0.7-0.6-1.1c-0.1-0.4-0.2-0.9-0.2-1.3c0-0.9,0.3-1.8,0.9-2.7c0.6-0.8,1.5-1.5,2.5-2.1c1.1-0.6,2.3-1.1,3.7-1.4
	c1.4-0.4,2.9-0.5,4.5-0.5c1.9,0,3.5,0.2,4.8,0.6c1.3,0.4,2.4,0.9,3.2,1.6c0.8,0.7,1.4,1.5,1.8,2.4c0.4,1,0.5,2,0.5,3.2V85.1z
	 M17.3,68.2c-0.8,0.3-1.7,0.6-2.6,0.9c-0.9,0.3-1.8,0.7-2.6,1.2c-0.9,0.4-1.7,0.9-2.4,1.4c-0.8,0.5-1.5,1-2,1.6
	c-0.6,0.6-1,1.2-1.4,1.8c-0.3,0.6-0.5,1.3-0.5,2c0,0.7,0.1,1.4,0.4,2c0.3,0.6,0.6,1.2,1,1.7c0.4,0.5,0.9,0.9,1.5,1.1
	c0.6,0.3,1.2,0.4,1.8,0.4c0.6,0,1.3-0.1,1.8-0.3c0.6-0.2,1.2-0.4,1.7-0.7c0.5-0.3,1.1-0.6,1.6-1c0.5-0.4,1.1-0.8,1.7-1.2V68.2z"/>
<path class="st0" d="M30.8,56.1h5.8v5.4c0.7-0.8,1.6-1.6,2.5-2.3c0.9-0.7,1.9-1.4,2.9-1.9c1-0.6,2-1,3-1.3c1-0.3,1.9-0.5,2.8-0.5
	c0.9,0,1.7,0.2,2.6,0.5c0.9,0.3,1.7,0.7,2.4,1.3c0.7,0.5,1.4,1.2,1.9,1.9c0.5,0.8,0.9,1.6,1.1,2.4c0.5-0.8,1.1-1.6,2-2.4
	c0.8-0.7,1.8-1.4,2.8-1.9c1-0.5,2.1-1,3.2-1.3c1.1-0.3,2.2-0.5,3.3-0.5c1.1,0,2.1,0.2,3.1,0.7c1,0.5,1.8,1.1,2.5,2
	c0.7,0.8,1.3,1.8,1.7,2.9c0.4,1.1,0.6,2.3,0.6,3.5v20.5h-5.8V65.4c0-0.8-0.1-1.6-0.4-2.3c-0.3-0.7-0.7-1.4-1.1-1.9
	c-0.5-0.5-1-1-1.7-1.3c-0.6-0.3-1.3-0.5-2-0.5c-0.8,0-1.6,0.1-2.4,0.3c-0.8,0.2-1.6,0.5-2.3,0.9c-0.7,0.4-1.4,0.8-2,1.3
	c-0.6,0.5-1.1,1-1.5,1.6v21.5h-5.8V65.4c0-0.8-0.1-1.6-0.4-2.3c-0.3-0.7-0.7-1.4-1.1-1.9c-0.5-0.5-1-1-1.7-1.3
	c-0.6-0.3-1.3-0.5-2-0.5c-0.7,0-1.5,0.1-2.3,0.3c-0.8,0.2-1.6,0.5-2.3,0.9c-0.7,0.4-1.4,0.8-2.1,1.3c-0.6,0.5-1.2,1-1.6,1.6v21.5
	h-5.8V56.1z"/>
<path class="st0" d="M81.6,56.1h5.8V62c0.6-0.7,1.2-1.5,1.9-2.3c0.7-0.8,1.5-1.5,2.4-2.1c0.9-0.6,1.8-1.1,2.8-1.6
	c1-0.4,2.2-0.6,3.4-0.6c1.7,0,3.3,0.4,4.7,1.1c1.4,0.7,2.6,1.7,3.6,2.9c1,1.2,1.8,2.7,2.3,4.3c0.5,1.7,0.8,3.4,0.8,5.3
	c0,2.4-0.3,4.6-1,6.6c-0.7,2-1.6,3.8-2.8,5.3c-1.2,1.5-2.7,2.6-4.5,3.5c-1.7,0.8-3.7,1.2-5.9,1.2c-0.8,0-1.6,0-2.2-0.1
	c-0.7-0.1-1.3-0.2-2-0.4c-0.6-0.2-1.2-0.4-1.8-0.7c-0.6-0.3-1.2-0.6-1.8-1v13.7h-5.8V56.1z M87.4,77.3c0,0.9,0.2,1.7,0.6,2.5
	c0.4,0.8,0.9,1.4,1.6,2c0.7,0.6,1.5,1,2.5,1.4c1,0.3,2,0.5,3.1,0.5c1.1,0,2.1-0.3,3-0.8c0.9-0.6,1.8-1.3,2.5-2.3
	c0.7-1,1.3-2.2,1.7-3.6c0.4-1.4,0.6-2.9,0.6-4.7c0-2.1-0.2-4-0.6-5.6c-0.4-1.6-0.9-2.9-1.6-4c-0.7-1.1-1.5-1.9-2.4-2.4
	c-0.9-0.5-1.9-0.8-3-0.8c-0.8,0-1.6,0.1-2.4,0.4c-0.8,0.3-1.5,0.6-2.2,1c-0.7,0.4-1.3,0.9-1.9,1.5c-0.6,0.6-1.1,1.2-1.5,1.8V77.3z"
	/>
<polygon class="st0" points="120.7,85.1 115,85.1 115,42.9 119.1,41.2 120.7,41.2 "/>
<path class="st0" d="M130.8,41.2c0.4,0,0.9,0.1,1.3,0.2c0.4,0.2,0.8,0.4,1,0.6c0.3,0.3,0.5,0.6,0.7,0.9c0.2,0.4,0.3,0.7,0.3,1.1
	c0,0.4-0.1,0.8-0.3,1.1c-0.2,0.3-0.4,0.7-0.7,0.9c-0.3,0.3-0.6,0.5-1,0.6c-0.4,0.2-0.8,0.2-1.3,0.2c-0.5,0-0.9-0.1-1.3-0.2
	c-0.4-0.2-0.7-0.4-1-0.6c-0.3-0.3-0.5-0.6-0.7-0.9c-0.2-0.4-0.3-0.7-0.3-1.1c0-0.4,0.1-0.8,0.3-1.1c0.2-0.3,0.4-0.7,0.7-0.9
	c0.3-0.3,0.6-0.5,1-0.6C129.9,41.3,130.4,41.2,130.8,41.2 M128,57.1l4.1-1.6h1.7v29.6H128V57.1z"/>
<path class="st0" d="M156.2,81.4c-0.8,1.3-1.8,2.4-3.1,3.2c-1.3,0.8-2.9,1.2-4.7,1.2c-1,0-1.8-0.2-2.5-0.5c-0.7-0.3-1.3-0.8-1.8-1.4
	c-0.5-0.6-0.8-1.3-1-2.1c-0.2-0.8-0.3-1.7-0.3-2.8V58.5h-5v-1.4c1.6,0,3-0.3,4-0.9c1-0.6,1.9-1.4,2.6-2.4c0.7-1,1.2-2.2,1.6-3.5
	c0.4-1.3,0.7-2.7,1-4.2h1.6v9.9h6.5v2.4h-6.5V79c0,0.4,0.1,0.8,0.2,1.2c0.2,0.4,0.4,0.7,0.7,1c0.3,0.3,0.6,0.5,1,0.7
	c0.4,0.2,0.8,0.2,1.2,0.2c0.6,0,1.2-0.2,1.8-0.5c0.5-0.3,1-0.7,1.4-1.2L156.2,81.4z"/>
<path class="st0" d="M165.4,56.1v20.6c0,0.7,0.2,1.4,0.5,2c0.3,0.6,0.8,1.2,1.4,1.7c0.6,0.5,1.3,0.8,2,1.1c0.8,0.3,1.6,0.4,2.5,0.4
	c0.6,0,1.2-0.1,1.8-0.4c0.6-0.2,1.3-0.6,1.9-1c0.6-0.4,1.2-0.9,1.8-1.5c0.5-0.6,1-1.2,1.4-1.8V56.1h5.8v29h-5.8v-5.4
	c-0.5,0.8-1.1,1.6-1.9,2.3c-0.8,0.7-1.6,1.4-2.5,1.9c-0.9,0.5-1.8,1-2.8,1.3c-0.9,0.3-1.8,0.5-2.7,0.5c-1.3,0-2.4-0.2-3.6-0.7
	c-1.1-0.5-2.1-1.1-2.9-1.9c-0.8-0.8-1.5-1.8-2-2.8c-0.5-1.1-0.7-2.2-0.7-3.5V56.1H165.4z"/>
<path class="st0" d="M211.7,82.3c-0.7,0.5-1.4,1-2.2,1.4c-0.8,0.4-1.6,0.8-2.4,1.1c-0.8,0.3-1.7,0.5-2.5,0.7
	c-0.9,0.2-1.7,0.2-2.5,0.2c-1.7,0-3.3-0.4-4.8-1.2c-1.5-0.8-2.8-1.9-3.9-3.2c-1.1-1.4-2-2.9-2.6-4.7c-0.6-1.8-1-3.7-1-5.6
	c0-1.3,0.2-2.6,0.6-3.9c0.4-1.3,0.9-2.5,1.5-3.6c0.7-1.1,1.4-2.2,2.4-3.2c0.9-1,2-1.8,3.1-2.5c1.1-0.7,2.3-1.3,3.6-1.7
	c1.3-0.4,2.6-0.6,4-0.6c1.4,0,2.6,0.2,3.7,0.7c1.1,0.5,2,1.2,2.9,2V42.9l4-1.6h1.7v44.5h-5.7V82.3z M211.7,65.3
	c0-1.1-0.2-2.2-0.6-3.1c-0.4-0.9-1-1.7-1.7-2.4c-0.7-0.7-1.5-1.2-2.3-1.6c-0.9-0.4-1.7-0.6-2.6-0.6c-1.2,0-2.2,0.3-3.2,0.9
	c-1,0.6-1.9,1.4-2.6,2.4c-0.7,1-1.3,2.3-1.8,3.7c-0.4,1.4-0.6,3-0.6,4.7c0,1.8,0.2,3.6,0.7,5.2c0.5,1.6,1.1,3,2,4.2
	c0.8,1.2,1.8,2.1,2.9,2.8c1.1,0.7,2.3,1,3.6,1c0.6,0,1.2-0.1,1.8-0.2c0.6-0.2,1.2-0.4,1.7-0.6c0.5-0.3,1.1-0.6,1.6-0.9
	c0.5-0.4,0.9-0.7,1.3-1.1V65.3z"/>
<path class="st0" d="M238.3,85.7c-2.2,0-4.3-0.4-6.1-1.2c-1.9-0.8-3.5-1.8-4.9-3.2c-1.4-1.3-2.4-2.9-3.2-4.7
	c-0.8-1.8-1.2-3.7-1.2-5.7c0-2.1,0.4-4.2,1.2-6c0.8-1.9,1.8-3.5,3.2-4.9c1.4-1.4,3-2.5,4.9-3.3c1.9-0.8,3.9-1.2,6.1-1.2
	c2.2,0,4.3,0.4,6.1,1.1c1.9,0.7,3.5,1.8,4.9,3c1.4,1.3,2.4,2.8,3.2,4.5c0.8,1.7,1.1,3.6,1.1,5.6c0,2.2-0.4,4.3-1.1,6.2
	c-0.8,1.9-1.8,3.6-3.2,5.1c-1.4,1.4-3,2.6-4.9,3.4C242.5,85.3,240.5,85.7,238.3,85.7 M239.4,83.6c1.1,0,2.2-0.3,3.1-0.9
	c0.9-0.6,1.8-1.4,2.5-2.4c0.7-1,1.2-2.1,1.6-3.4c0.4-1.3,0.6-2.7,0.6-4.2c0-2.1-0.2-4.1-0.5-5.9c-0.4-1.8-0.9-3.4-1.8-4.8
	c-0.8-1.4-1.9-2.4-3.2-3.2c-1.3-0.8-2.9-1.2-4.8-1.2c-1,0-1.9,0.3-2.8,0.8c-0.9,0.6-1.7,1.3-2.4,2.3c-0.7,1-1.2,2.1-1.7,3.4
	c-0.4,1.3-0.6,2.7-0.6,4.1c0,2.1,0.2,4.1,0.7,5.9c0.4,1.8,1.1,3.5,1.9,4.8c0.8,1.4,1.9,2.5,3.1,3.3
	C236.4,83.2,237.8,83.6,239.4,83.6"/>
<path class="st1" d="M171.8,17.5c-3.4,0-6.2,15-6.2,33.6H178C178,32.6,175.2,17.5,171.8,17.5"/>
<path class="st1" d="M194.5,0c-6.8,0-12.3,22.9-12.3,51.1h24.5C206.8,22.9,201.3,0,194.5,0"/>
<path class="st1" d="M157.8,31.7c-2,0-3.6,8.7-3.6,19.4h7.2C161.4,40.4,159.8,31.7,157.8,31.7"/>
</svg>
